<?xml version="1.0" standalone="no"?>
<!DOCTYPE svg PUBLIC "-//W3C//DTD SVG 20010904//EN"
 "http://www.w3.org/TR/2001/REC-SVG-20010904/DTD/svg10.dtd">
<svg version="1.0" xmlns="http://www.w3.org/2000/svg"
 width="512.000000pt" height="512.000000pt" viewBox="0 0 512.000000 512.000000"
 preserveAspectRatio="xMidYMid meet">
<metadata>
Created by potrace 1.11, written by Peter Selinger 2001-2013
</metadata>
<g transform="translate(0.000000,512.000000) scale(0.100000,-0.100000)"
fill="#000000" stroke="none">
<path d="M2388 4795 c-2 -1 -34 -6 -71 -10 -37 -3 -78 -8 -90 -11 -12 -2 -39
-6 -62 -9 -22 -4 -67 -13 -100 -22 -33 -8 -64 -16 -70 -17 -64 -15 -225 -73
-267 -96 -10 -6 -25 -10 -33 -10 -8 0 -15 -4 -15 -10 0 -5 -6 -10 -14 -10 -20
0 -206 -103 -289 -160 -267 -185 -499 -426 -638 -662 -24 -40 -46 -75 -49 -78
-14 -13 -134 -270 -164 -353 -56 -155 -105 -366 -123 -524 -8 -77 -9 -430 -1
-513 15 -153 58 -348 113 -515 64 -192 251 -527 384 -687 47 -56 231 -242 291
-293 102 -88 275 -202 400 -265 47 -23 96 -48 110 -55 42 -22 241 -92 310
-110 391 -102 823 -89 1205 36 207 68 445 193 620 328 206 158 408 379 539
591 60 96 180 330 170 330 -4 0 -1 6 5 14 6 7 25 54 42 102 60 176 99 350 116
519 10 90 10 411 0 495 -4 36 -10 88 -13 115 -6 59 -83 375 -94 390 -4 6 -15
35 -25 65 -22 68 -116 264 -167 348 -21 34 -38 66 -38 71 0 5 -3 11 -7 13 -12
5 -73 95 -73 106 0 6 -3 12 -8 14 -4 2 -35 37 -69 79 -103 126 -211 232 -377
366 -61 49 -217 147 -312 196 -203 103 -406 173 -579 201 -16 2 -50 8 -74 11
-24 4 -60 9 -80 12 -41 5 -398 13 -403 8z m347 -659 c372 -45 737 -246 983
-542 98 -119 211 -311 263 -449 4 -11 14 -39 23 -62 9 -24 13 -43 10 -43 -4 0
-2 -6 3 -12 10 -13 26 -71 37 -133 3 -16 8 -40 10 -52 26 -128 26 -437 1 -573
-50 -269 -163 -517 -336 -735 -23 -30 -223 -229 -249 -249 -38 -28 -190 -126
-196 -126 -3 0 -19 -9 -35 -21 -16 -11 -29 -17 -29 -13 0 3 -6 2 -12 -4 -37
-29 -288 -116 -373 -128 -11 -1 -49 -7 -85 -12 -36 -6 -137 -9 -225 -7 -148 3
-188 6 -255 21 -14 3 -36 8 -50 10 -117 21 -359 124 -479 206 -35 24 -75 49
-89 57 -49 27 -268 256 -332 349 -116 166 -206 363 -253 552 -16 62 -20 84
-33 190 -9 71 -11 307 -3 369 4 31 10 76 13 101 25 191 127 448 253 636 25 38
48 71 52 74 3 3 32 37 63 75 228 280 620 488 978 521 41 3 76 7 78 9 5 4 216
-3 267 -9z"/>
<path d="M2603 3668 c-47 -23 -48 -31 -48 -587 0 -286 -2 -521 -5 -522 -3 0
-151 -1 -330 -2 -237 -2 -331 -5 -347 -14 -12 -7 -26 -28 -32 -46 -13 -40 -13
-209 0 -253 18 -59 16 -59 534 -59 516 0 518 0 533 57 4 16 7 332 7 701 -1
624 -2 674 -18 698 -10 15 -28 30 -40 33 -37 10 -231 5 -254 -6z"/>
</g>
</svg>
